<?xml version="1.0" encoding="UTF-8" standalone="no"?>
<svg
   xmlns:dc="http://purl.org/dc/elements/1.1/"
   xmlns:cc="http://creativecommons.org/ns#"
   xmlns:rdf="http://www.w3.org/1999/02/22-rdf-syntax-ns#"
   xmlns:svg="http://www.w3.org/2000/svg"
   xmlns="http://www.w3.org/2000/svg"
   xmlns:xlink="http://www.w3.org/1999/xlink"
   xmlns:sodipodi="http://sodipodi.sourceforge.net/DTD/sodipodi-0.dtd"
   xmlns:inkscape="http://www.inkscape.org/namespaces/inkscape"
   width="1253px"
   height="365px"
   viewBox="0 0 1253 365"
   version="1.1"
   id="svg2"
   inkscape:version="0.48.4 r9939"
   sodipodi:docname="hero-circuit-bg.svg">
  <metadata
     id="metadata401">
    <rdf:RDF>
      <cc:Work
         rdf:about="">
        <dc:format>image/svg+xml</dc:format>
        <dc:type
           rdf:resource="http://purl.org/dc/dcmitype/StillImage" />
      </cc:Work>
    </rdf:RDF>
  </metadata>
  <sodipodi:namedview
     pagecolor="#ffffff"
     bordercolor="#666666"
     borderopacity="1"
     objecttolerance="10"
     gridtolerance="10"
     guidetolerance="10"
     inkscape:pageopacity="0"
     inkscape:pageshadow="2"
     inkscape:window-width="1535"
     inkscape:window-height="876"
     id="namedview399"
     showgrid="false"
     inkscape:zoom="1.3182773"
     inkscape:cx="724.23774"
     inkscape:cy="250.3286"
     inkscape:window-x="65"
     inkscape:window-y="24"
     inkscape:window-maximized="1"
     inkscape:current-layer="svg2" />
  <!-- Generator: Sketch 39.1 (31720) - http://www.bohemiancoding.com/sketch -->
  <title
     id="title4">Group 11</title>
  <desc
     id="desc6">Created with Sketch.</desc>
  <defs
     id="defs8">
    <path
       d="M246.571429,258 L205.428571,258 C203.542857,258 202,259.542857 202,261.428571 L202,288.857143 C202,290.742857 203.542857,292.285714 205.428571,292.285714 L212.285714,292.285714 L212.285714,304.285714 L224.285714,292.285714 L246.571429,292.285714 C248.457143,292.285714 250,290.742857 250,288.857143 L250,261.428571 C250,259.542857 248.457143,258 246.571429,258 Z M246.571429,288.857143 L222.571429,288.857143 L215.714286,295.714286 L215.714286,288.857143 L205.428571,288.857143 L205.428571,261.428571 L246.571429,261.428571 L246.571429,288.857143 Z"
       id="path-1" />
    <mask
       id="mask-2"
       maskContentUnits="userSpaceOnUse"
       maskUnits="objectBoundingBox"
       x="-1"
       y="-1"
       width="50"
       height="48.2857143">
      <rect
         x="201"
         y="257"
         width="50"
         height="48.2857143"
         fill="white"
         id="rect12" />
      <use
         xlink:href="#path-1"
         fill="black"
         id="use14" />
    </mask>
    <circle
       id="path-3"
       cx="334"
       cy="223"
       r="3" />
    <mask
       id="mask-4"
       maskContentUnits="userSpaceOnUse"
       maskUnits="objectBoundingBox"
       x="-7"
       y="-7"
       width="20"
       height="20">
      <rect
         x="324"
         y="213"
         width="20"
         height="20"
         fill="white"
         id="rect18" />
      <use
         xlink:href="#path-3"
         fill="black"
         id="use20" />
    </mask>
    <circle
       id="path-5"
       cx="348"
       cy="284"
       r="3" />
    <mask
       id="mask-6"
       maskContentUnits="userSpaceOnUse"
       maskUnits="objectBoundingBox"
       x="-7"
       y="-7"
       width="20"
       height="20">
      <rect
         x="338"
         y="274"
         width="20"
         height="20"
         fill="white"
         id="rect24" />
      <use
         xlink:href="#path-5"
         fill="black"
         id="use26" />
    </mask>
    <circle
       id="path-7"
       cx="297"
       cy="176"
       r="3" />
    <mask
       id="mask-8"
       maskContentUnits="userSpaceOnUse"
       maskUnits="objectBoundingBox"
       x="-7"
       y="-7"
       width="20"
       height="20">
      <rect
         x="287"
         y="166"
         width="20"
         height="20"
         fill="white"
         id="rect30" />
      <use
         xlink:href="#path-7"
         fill="black"
         id="use32" />
    </mask>
    <circle
       id="path-9"
       cx="337"
       cy="82"
       r="3" />
    <mask
       id="mask-10"
       maskContentUnits="userSpaceOnUse"
       maskUnits="objectBoundingBox"
       x="-7"
       y="-7"
       width="20"
       height="20">
      <rect
         x="327"
         y="72"
         width="20"
         height="20"
         fill="white"
         id="rect36" />
      <use
         xlink:href="#path-9"
         fill="black"
         id="use38" />
    </mask>
    <circle
       id="path-11"
       cx="315"
       cy="130"
       r="3" />
    <mask
       id="mask-12"
       maskContentUnits="userSpaceOnUse"
       maskUnits="objectBoundingBox"
       x="-7"
       y="-7"
       width="20"
       height="20">
      <rect
         x="305"
         y="120"
         width="20"
         height="20"
         fill="white"
         id="rect42" />
      <use
         xlink:href="#path-11"
         fill="black"
         id="use44" />
    </mask>
    <circle
       id="path-13"
       cx="223.5"
       cy="17.5"
       r="3" />
    <mask
       id="mask-14"
       maskContentUnits="userSpaceOnUse"
       maskUnits="objectBoundingBox"
       x="-7"
       y="-7"
       width="20"
       height="20">
      <rect
         x="213.5"
         y="7.5"
         width="20"
         height="20"
         fill="white"
         id="rect48" />
      <use
         xlink:href="#path-13"
         fill="black"
         id="use50" />
    </mask>
    <circle
       id="path-15"
       cx="284.5"
       cy="3.5"
       r="3" />
    <mask
       id="mask-16"
       maskContentUnits="userSpaceOnUse"
       maskUnits="objectBoundingBox"
       x="-7"
       y="-7"
       width="20"
       height="20">
      <rect
         x="274.5"
         y="-6.5"
         width="20"
         height="20"
         fill="white"
         id="rect54" />
      <use
         xlink:href="#path-15"
         fill="black"
         id="use56" />
    </mask>
    <circle
       id="path-17"
       cx="176.5"
       cy="54.5"
       r="3" />
    <mask
       id="mask-18"
       maskContentUnits="userSpaceOnUse"
       maskUnits="objectBoundingBox"
       x="-7"
       y="-7"
       width="20"
       height="20">
      <rect
         x="166.5"
         y="44.5"
         width="20"
         height="20"
         fill="white"
         id="rect60" />
      <use
         xlink:href="#path-17"
         fill="black"
         id="use62" />
    </mask>
    <circle
       id="path-19"
       cx="82.5"
       cy="14.5"
       r="3" />
    <mask
       id="mask-20"
       maskContentUnits="userSpaceOnUse"
       maskUnits="objectBoundingBox"
       x="-7"
       y="-7"
       width="20"
       height="20">
      <rect
         x="72.5"
         y="4.5"
         width="20"
         height="20"
         fill="white"
         id="rect66" />
      <use
         xlink:href="#path-19"
         fill="black"
         id="use68" />
    </mask>
    <circle
       id="path-21"
       cx="130.5"
       cy="36.5"
       r="3" />
    <mask
       id="mask-22"
       maskContentUnits="userSpaceOnUse"
       maskUnits="objectBoundingBox"
       x="-7"
       y="-7"
       width="20"
       height="20">
      <rect
         x="120.5"
         y="26.5"
         width="20"
         height="20"
         fill="white"
         id="rect72" />
      <use
         xlink:href="#path-21"
         fill="black"
         id="use74" />
    </mask>
    <circle
       id="path-23"
       cx="128.5"
       cy="333.5"
       r="3" />
    <mask
       id="mask-24"
       maskContentUnits="userSpaceOnUse"
       maskUnits="objectBoundingBox"
       x="-7"
       y="-7"
       width="20"
       height="20">
      <rect
         x="118.5"
         y="323.5"
         width="20"
         height="20"
         fill="white"
         id="rect78" />
      <use
         xlink:href="#path-23"
         fill="black"
         id="use80" />
    </mask>
    <circle
       id="path-25"
       cx="67.5"
       cy="347.5"
       r="3" />
    <mask
       id="mask-26"
       maskContentUnits="userSpaceOnUse"
       maskUnits="objectBoundingBox"
       x="-7"
       y="-7"
       width="20"
       height="20">
      <rect
         x="57.5"
         y="337.5"
         width="20"
         height="20"
         fill="white"
         id="rect84" />
      <use
         xlink:href="#path-25"
         fill="black"
         id="use86" />
    </mask>
    <circle
       id="path-27"
       cx="175.5"
       cy="296.5"
       r="3" />
    <mask
       id="mask-28"
       maskContentUnits="userSpaceOnUse"
       maskUnits="objectBoundingBox"
       x="-7"
       y="-7"
       width="20"
       height="20">
      <rect
         x="165.5"
         y="286.5"
         width="20"
         height="20"
         fill="white"
         id="rect90" />
      <use
         xlink:href="#path-27"
         fill="black"
         id="use92" />
    </mask>
    <circle
       id="path-29"
       cx="269.5"
       cy="336.5"
       r="3" />
    <mask
       id="mask-30"
       maskContentUnits="userSpaceOnUse"
       maskUnits="objectBoundingBox"
       x="-7"
       y="-7"
       width="20"
       height="20">
      <rect
         x="259.5"
         y="326.5"
         width="20"
         height="20"
         fill="white"
         id="rect96" />
      <use
         xlink:href="#path-29"
         fill="black"
         id="use98" />
    </mask>
    <circle
       id="path-31"
       cx="221.5"
       cy="314.5"
       r="3" />
    <mask
       id="mask-32"
       maskContentUnits="userSpaceOnUse"
       maskUnits="objectBoundingBox"
       x="-7"
       y="-7"
       width="20"
       height="20">
      <rect
         x="211.5"
         y="304.5"
         width="20"
         height="20"
         fill="white"
         id="rect102" />
      <use
         xlink:href="#path-31"
         fill="black"
         id="use104" />
    </mask>
    <circle
       id="path-33"
       cx="17"
       cy="129"
       r="3" />
    <mask
       id="mask-34"
       maskContentUnits="userSpaceOnUse"
       maskUnits="objectBoundingBox"
       x="-7"
       y="-7"
       width="20"
       height="20">
      <rect
         x="7"
         y="119"
         width="20"
         height="20"
         fill="white"
         id="rect108" />
      <use
         xlink:href="#path-33"
         fill="black"
         id="use110" />
    </mask>
    <circle
       id="path-35"
       cx="3"
       cy="68"
       r="3" />
    <mask
       id="mask-36"
       maskContentUnits="userSpaceOnUse"
       maskUnits="objectBoundingBox"
       x="-7"
       y="-7"
       width="20"
       height="20">
      <rect
         x="-7"
         y="58"
         width="20"
         height="20"
         fill="white"
         id="rect114" />
      <use
         xlink:href="#path-35"
         fill="black"
         id="use116" />
    </mask>
    <circle
       id="path-37"
       cx="54"
       cy="176"
       r="3" />
    <mask
       id="mask-38"
       maskContentUnits="userSpaceOnUse"
       maskUnits="objectBoundingBox"
       x="-7"
       y="-7"
       width="20"
       height="20">
      <rect
         x="44"
         y="166"
         width="20"
         height="20"
         fill="white"
         id="rect120" />
      <use
         xlink:href="#path-37"
         fill="black"
         id="use122" />
    </mask>
    <circle
       id="path-39"
       cx="14"
       cy="270"
       r="3" />
    <mask
       id="mask-40"
       maskContentUnits="userSpaceOnUse"
       maskUnits="objectBoundingBox"
       x="-7"
       y="-7"
       width="20"
       height="20">
      <rect
         x="4"
         y="260"
         width="20"
         height="20"
         fill="white"
         id="rect126" />
      <use
         xlink:href="#path-39"
         fill="black"
         id="use128" />
    </mask>
    <circle
       id="path-41"
       cx="36"
       cy="222"
       r="3" />
    <mask
       id="mask-42"
       maskContentUnits="userSpaceOnUse"
       maskUnits="objectBoundingBox"
       x="-7"
       y="-7"
       width="20"
       height="20">
      <rect
         x="26"
         y="212"
         width="20"
         height="20"
         fill="white"
         id="rect132" />
      <use
         xlink:href="#path-41"
         fill="black"
         id="use134" />
    </mask>
    <rect
       id="path-43"
       x="0"
       y="0"
       width="138"
       height="138"
       rx="20" />
    <rect
       id="path-45"
       x="133"
       y="131"
       width="89"
       height="89"
       rx="10" />
    <filter
       x="-50%"
       y="-50%"
       width="200%"
       height="200%"
       filterUnits="objectBoundingBox"
       id="filter-46">
      <feOffset
         dx="0"
         dy="0"
         in="SourceAlpha"
         result="shadowOffsetOuter1"
         id="feOffset139" />
      <feGaussianBlur
         stdDeviation="3"
         in="shadowOffsetOuter1"
         result="shadowBlurOuter1"
         id="feGaussianBlur141" />
      <feColorMatrix
         values="0 0 0 0 0   0 0 0 0 0   0 0 0 0 0  0 0 0 0.39 0"
         type="matrix"
         in="shadowBlurOuter1"
         id="feColorMatrix143" />
    </filter>
  </defs>
  <g
     style="fill:none;stroke:none"
     id="Group-10"
     transform="translate(0,17)">
    <g
       id="Shape">
      <use
         xlink:href="#path-1"
         id="use151"
         style="fill:#e5e5e5;fill-rule:evenodd"
         x="0"
         y="0"
         width="1253"
         height="365" />
      <use
         mask="url(#mask-2)"
         xlink:href="#path-1"
         id="use153"
         style="stroke:#dddfe0;stroke-width:2"
         x="0"
         y="0"
         width="1253"
         height="365" />
    </g>
    <path
       d="m 310.57143,55.428571 c 0,-3.726428 -2.98786,-6.714285 -6.71429,-6.714285 -3.72643,0 -6.71428,2.987857 -6.71428,6.714285 0,2.450715 1.37643,4.632858 3.35714,5.774286 l 0,1.007143 c -0.0671,1.745714 -0.77214,3.29 -2.115,4.632857 -1.34286,1.342857 -2.88714,2.047857 -4.63286,2.115 -2.78643,0.06714 -4.96857,0.537143 -6.71428,1.510714 l 0,-15.98 c 1.98071,-1.141428 3.35714,-3.29 3.35714,-5.774285 C 290.395,44.987857 287.40714,42 283.68071,42 279.95429,42 277,44.987857 277,48.714286 c 0,2.450714 1.37643,4.632857 3.35714,5.774285 l 0,22.022858 C 278.37643,77.686429 277,79.835 277,82.285714 277,86.012143 279.98786,89 283.71429,89 c 3.72642,0 6.71428,-2.987857 6.71428,-6.714286 0,-1.779285 -0.67143,-3.357143 -1.77928,-4.565714 0.30214,-0.201429 1.61142,-1.376429 1.98071,-1.577857 0.83929,-0.369286 1.88,-0.570714 3.15571,-0.570714 3.525,-0.167858 6.54643,-1.510715 9.23215,-4.196429 2.68571,-2.685714 4.02857,-6.647143 4.19643,-10.138571 l -0.0672,0 c 2.04786,-1.208572 3.42429,-3.357143 3.42429,-5.807858 l 0,0 z M 283.71429,44.685714 c 2.21571,0 4.02857,1.846429 4.02857,4.028572 0,2.182143 -1.84643,4.028571 -4.02857,4.028571 -2.18215,0 -4.02858,-1.846428 -4.02858,-4.028571 0,-2.182143 1.84643,-4.028572 4.02858,-4.028572 l 0,0 z m 0,41.662143 c -2.21572,0 -4.02858,-1.846428 -4.02858,-4.028571 0,-2.182143 1.84643,-4.028572 4.02858,-4.028572 2.18214,0 4.02857,1.846429 4.02857,4.028572 0,2.182143 -1.84643,4.028571 -4.02857,4.028571 l 0,0 z m 20.14285,-26.857143 c -2.21571,0 -4.02857,-1.846428 -4.02857,-4.028571 0,-2.182143 1.84643,-4.028572 4.02857,-4.028572 2.18215,0 4.02857,1.846429 4.02857,4.028572 0,2.182143 -1.84642,4.028571 -4.02857,4.028571 l 0,0 z"
       id="path155"
       inkscape:connector-curvature="0"
       style="fill:#e5e5e5" />
    <path
       d="m 135.76923,56.076923 -7.07692,0 0,-7.076923 7.07692,0 0,7.076923 0,0 z m 14.15385,17.692308 -35.38462,0 C 112.59231,73.769231 111,72.176923 111,70.230769 l 0,-7.076923 c 0,-1.946154 1.59231,-3.538461 3.53846,-3.538461 l 35.38462,0 7.07692,7.076923 -7.07692,7.076923 0,0 z m -14.15385,-10.615385 -7.07692,0 0,7.076923 7.07692,0 0,-7.076923 0,0 z m -7.07692,42.461544 7.07692,0 0,-28.307698 -7.07692,0 0,28.307698 0,0 z"
       id="path157"
       inkscape:connector-curvature="0"
       style="fill:#e5e5e5" />
    <path
       d="m 120.71429,200 c -4.12286,0 -7.42858,3.30571 -7.42858,7.42857 0,2.71143 1.52286,5.12572 3.71429,6.38857 l 0,4.75429 -7.42857,7.42857 -7.42857,-7.42857 0,-4.75429 c 2.19143,-1.26285 3.71428,-3.64 3.71428,-6.38857 C 105.85714,203.30571 102.55143,200 98.428571,200 94.305714,200 91,203.30571 91,207.42857 c 0,2.71143 1.522857,5.12572 3.714286,6.38857 l 0,6.61143 11.142854,11.14286 0,6.61143 c -2.19143,1.26285 -3.71428,3.64 -3.71428,6.38857 0,4.12286 3.30571,7.42857 7.42857,7.42857 4.12286,0 7.42857,-3.30571 7.42857,-7.42857 0,-2.71143 -1.52286,-5.12572 -3.71429,-6.38857 l 0,-6.61143 11.14286,-11.14286 0,-6.61143 c 2.19143,-1.26285 3.71429,-3.64 3.71429,-6.38857 0,-4.12286 -3.30572,-7.42857 -7.42857,-7.42857 l 0,0 z m -22.285719,11.88571 c -2.451428,0 -4.457142,-2.04285 -4.457142,-4.45714 0,-2.41428 2.042857,-4.45714 4.457142,-4.45714 2.414289,0 4.457139,2.04286 4.457139,4.45714 0,2.41429 -2.04285,4.45714 -4.457139,4.45714 l 0,0 z m 11.142859,37.14286 c -2.45143,0 -4.45714,-2.04286 -4.45714,-4.45714 0,-2.41429 2.04285,-4.45714 4.45714,-4.45714 2.41428,0 4.45714,2.04285 4.45714,4.45714 0,2.41428 -2.04286,4.45714 -4.45714,4.45714 l 0,0 z m 11.14286,-37.14286 c -2.45143,0 -4.45715,-2.04285 -4.45715,-4.45714 0,-2.41428 2.04286,-4.45714 4.45715,-4.45714 2.41428,0 4.45714,2.04286 4.45714,4.45714 0,2.41429 -2.04286,4.45714 -4.45714,4.45714 l 0,0 z"
       id="path159"
       inkscape:connector-curvature="0"
       style="fill:#e5e5e5" />
    <path
       d="m 1253,159.53286 0,-3.2 -3.88,-1.28 -0.9,-2.18 1.76,-3.68 -2.26,-2.26 -3.62,1.82 -2.18,-0.9 -1.38,-3.84 -3.2,0 -1.26,3.88 -2.22,0.9 -3.68,-1.76 -2.26,2.26 1.82,3.62 -0.9,2.18 -3.84,1.36 0,3.18 3.88,1.28 0.9,2.18 -1.76,3.68 2.26,2.26 3.62,-1.82 2.18,0.9 1.38,3.84 3.18,0 1.26,-3.88 2.22,-0.9 3.68,1.76 2.26,-2.26 -1.84,-3.62 0.94,-2.18 3.84,-1.38 0,0.04 z m -14,4.46 c -3.32,0 -6,-2.68 -6,-6 0,-3.32 2.68,-6 6,-6 3.32,0 6,2.68 6,6 0,3.32 -2.68,6 -6,6 l 0,0 z"
       id="path161"
       inkscape:connector-curvature="0"
       style="fill:#e5e5e5" />
    <path
       d="m 1077,159 10,0 0,10 -10,0 0,-10 0,0 z m 10,-30 -10,0 0,25 10,0 0,-25 0,0 z m 7.5,7.5 -5,5 12.5,12.5 20,-22.5 -5,-5 -15,17.5 -7.5,-7.5 0,0 z m -12.5,41 c -15.7,0 -28.5,-12.8 -28.5,-28.5 0,-15.7 12.8,-28.5 28.5,-28.5 9.15,0 17.25,4.4 22.5,11 l 4.6,-4.6 C 1102.7,119 1092.95,114 1082,114 c -19.3,0 -35,15.7 -35,35 0,19.3 15.7,35 35,35 19.3,0 35,-15.7 35,-35 l -7.6,7.6 c -3.3,12.05 -14.3,20.95 -27.4,20.95 l 0,-0.05 z"
       id="path163"
       inkscape:connector-curvature="0"
       style="fill:#e5e5e5" />
    <path
       d="m 337,212.75 -6.75,0 0,-6.75 6.75,0 0,6.75 0,0 z m 0,-20.25 -6.75,0 0,6.75 6.75,0 0,-6.75 0,0 z m 0,-13.5 -6.75,0 0,6.75 6.75,0 0,-6.75 0,0 z m 0,-13.5 -6.75,0 0,6.75 6.75,0 0,-6.75 0,0 z m 54,-6.75 0,81 c 0,3.7125 -3.0375,6.75 -6.75,6.75 l -33.75,0 0,13.5 -10.125,-10.125 -10.125,10.125 0,-13.5 -13.5,0 c -3.7125,0 -6.75,-3.0375 -6.75,-6.75 l 0,-81 c 0,-3.7125 3.0375,-6.75 6.75,-6.75 l 67.5,0 c 3.7125,0 6.75,3.0375 6.75,6.75 l 0,0 z m -6.75,67.5 -67.5,0 0,13.5 13.5,0 0,-6.75 20.25,0 0,6.75 33.75,0 0,-13.5 0,0 z m 0,-67.5 -60.75,0 0,60.75 60.75,0 0,-60.75 0,0 z"
       id="path165"
       inkscape:connector-curvature="0"
       style="fill:#e5e5e5" />
    <path
       d="M 219.23429,141.28571 C 217.69143,135.38857 212.37714,131 206,131 c -6.37714,0 -11.69143,4.38857 -13.23429,10.28571 l -10.76571,0 0,6.85715 10.76571,0 c 1.54286,5.89714 6.85715,10.28571 13.23429,10.28571 6.37714,0 11.69143,-4.38857 13.23429,-10.28571 l 10.76571,0 0,-6.85715 -10.76571,0 0,0 z M 206,152.25714 c -4.18286,0 -7.54286,-3.36 -7.54286,-7.54285 0,-4.18286 3.36,-7.54286 7.54286,-7.54286 4.18286,0 7.54286,3.36 7.54286,7.54286 0,4.18285 -3.36,7.54285 -7.54286,7.54285 l 0,0 z"
       id="path167"
       inkscape:connector-curvature="0"
       style="fill:#e5e5e5" />
    <path
       d="m 951.14286,272.14286 -3.42857,0 c -0.92572,-0.0686 -1.64572,-0.37715 -2.36572,-1.06286 -0.72,-0.68571 -1.02857,-1.44 -1.06286,-2.36571 l 0,-21.53143 c 2.02286,-1.16572 3.42858,-3.36 3.42858,-5.89715 0,-3.80571 -3.05143,-6.85714 -6.85715,-6.85714 -3.80571,0 -6.85714,3.05143 -6.85714,6.85714 0,2.50286 1.40571,4.73143 3.42857,5.89715 l 0,21.53143 c 0.10286,2.67428 1.16572,5.04 3.22286,7.06285 2.05714,2.02286 4.38857,3.12 7.06286,3.22286 l 3.42857,0 0,6.85714 10.28571,-10.28571 -10.28571,-10.28572 0,6.85715 0,0 z m -10.28572,-34.97143 c 2.26286,0 4.11429,1.88571 4.11429,4.11428 0,2.22858 -1.88572,4.11429 -4.11429,4.11429 -2.22857,0 -4.11428,-1.88571 -4.11428,-4.11429 0,-2.22857 1.88571,-4.11428 4.11428,-4.11428 l 0,0 z m 37.71429,32.50286 0,-21.53143 c -0.10286,-2.67429 -1.16572,-5.04 -3.22286,-7.06286 -2.05714,-2.02286 -4.38857,-3.12 -7.06286,-3.22286 l -3.42857,0 0,-6.85714 -10.28571,10.28571 10.28571,10.28572 0,-6.85714 3.42857,0 c 0.92572,0.0686 1.64572,0.37714 2.36572,1.06285 0.72,0.68572 1.02857,1.44 1.06286,2.36572 l 0,21.53143 c -2.02286,1.16571 -3.42858,3.36 -3.42858,5.89714 0,3.80571 3.05143,6.85714 6.85715,6.85714 3.80571,0 6.85714,-3.05143 6.85714,-6.85714 0,-2.50286 -1.40571,-4.73143 -3.42857,-5.89714 l 0,0 z m -3.42857,10.01142 c -2.26286,0 -4.11429,-1.88571 -4.11429,-4.11428 0,-2.22857 1.88572,-4.11429 4.11429,-4.11429 2.22857,0 4.11428,1.88572 4.11428,4.11429 0,2.22857 -1.88571,4.11428 -4.11428,4.11428 l 0,0 z"
       id="path169"
       inkscape:connector-curvature="0"
       style="fill:#e5e5e5" />
    <path
       d="m 1184,46.01 c -2.19,0 -4.14,1.23 -5.19,3.06 l 0,-0.06 c -3.15,-0.06 -6.81,-1.08 -9.39,-3.06 -2.25,-1.74 -4.5,-4.83 -5.67,-7.32 1.35,-1.08 2.25,-2.76 2.25,-4.65 0,-3.33 -2.67,-6 -6,-6 -3.33,0 -6,2.7 -6,6.03 0,2.19 1.23,4.14 3,5.16 l 0,19.68 c -1.77,1.05 -3,2.97 -3,5.16 0,3.33 2.67,6 6,6 3.33,0 6,-2.67 6,-6 0,-2.19 -1.23,-4.14 -3,-5.16 l 0,-10.83 c 2.01,2.1 4.32,3.81 6.9,5.07 2.58,1.26 6.09,1.89 8.91,1.92 l 0,-0.06 c 1.08,1.83 3,3.06 5.19,3.06 3.33,0 6,-2.67 6,-6 0,-3.33 -2.67,-6 -6,-6 l 0,0 z m -20.4,18 c 0,1.98 -1.65,3.6 -3.6,3.6 -1.95,0 -3.6,-1.65 -3.6,-3.6 0,-1.95 1.65,-3.6 3.6,-3.6 1.95,0 3.6,1.65 3.6,3.6 l 0,0 z m -3.6,-26.4 c -1.98,0 -3.6,-1.65 -3.6,-3.6 0,-1.95 1.65,-3.6 3.6,-3.6 1.95,0 3.6,1.65 3.6,3.6 0,1.95 -1.65,3.6 -3.6,3.6 l 0,0 z m 24,18 c -1.98,0 -3.6,-1.65 -3.6,-3.6 0,-1.95 1.65,-3.6 3.6,-3.6 1.95,0 3.6,1.65 3.6,3.6 0,1.95 -1.65,3.6 -3.6,3.6 l 0,0 z"
       id="path171"
       inkscape:connector-curvature="0"
       style="fill:#e5e5e5" />
    <path
       d="M 988,33.84 988,15 C 987.91,12.66 986.98,10.59 985.18,8.82 983.38,7.05 981.34,6.09 979,6 l -3,0 0,-6 -9,9 9,9 0,-6 3,0 c 0.81,0.06 1.44,0.33 2.07,0.93 0.63,0.6 0.9,1.26 0.93,2.07 l 0,18.84 c -1.77,1.02 -3,2.94 -3,5.16 0,3.33 2.67,6 6,6 3.33,0 6,-2.67 6,-6 0,-2.19 -1.23,-4.14 -3,-5.16 l 0,0 z m -3,8.76 c -1.98,0 -3.6,-1.65 -3.6,-3.6 0,-1.95 1.65,-3.6 3.6,-3.6 1.95,0 3.6,1.65 3.6,3.6 0,1.95 -1.65,3.6 -3.6,3.6 l 0,0 z M 967,9 c 0,-3.33 -2.67,-6 -6,-6 -3.33,0 -6,2.67 -6,6 0,2.19 1.23,4.14 3,5.16 l 0,19.68 c -1.77,1.02 -3,2.94 -3,5.16 0,3.33 2.67,6 6,6 3.33,0 6,-2.67 6,-6 0,-2.19 -1.23,-4.14 -3,-5.16 l 0,-19.68 c 1.77,-1.02 3,-2.94 3,-5.16 l 0,0 z m -2.4,30 c 0,1.98 -1.65,3.6 -3.6,3.6 -1.95,0 -3.6,-1.65 -3.6,-3.6 0,-1.95 1.65,-3.6 3.6,-3.6 1.95,0 3.6,1.65 3.6,3.6 l 0,0 z M 961,12.6 c -1.98,0 -3.6,-1.65 -3.6,-3.6 0,-1.95 1.65,-3.6 3.6,-3.6 1.95,0 3.6,1.65 3.6,3.6 0,1.95 -1.65,3.6 -3.6,3.6 l 0,0 z"
       id="path173"
       inkscape:connector-curvature="0"
       style="fill:#e5e5e5" />
    <path
       d="m 851,92.285714 0,50.285716 c 0,3.45714 2.82857,6.28571 6.28571,6.28571 l 75.42858,0 c 3.45714,0 6.28571,-2.82857 6.28571,-6.28571 l 0,-50.285716 C 939,88.828571 936.17143,86 932.71429,86 l -75.42858,0 C 853.82857,86 851,88.828571 851,92.285714 l 0,0 z m 81.71429,0 L 895,123.71429 857.28571,92.285714 l 75.42858,0 0,0 z m -75.42858,9.428576 25.14286,18.85714 -25.14286,18.85714 0,-37.71428 0,0 z m 6.28572,40.85714 22,-18.85714 9.42857,9.42857 9.42857,-9.42857 22,18.85714 -62.85714,0 0,0 z m 69.14286,-3.14286 -25.14286,-18.85714 25.14286,-18.85714 0,37.71428 0,0 z"
       id="path175"
       inkscape:connector-curvature="0"
       style="fill:#e5e5e5" />
    <path
       d="m 1111.9463,249.05375 c -0.7088,-0.70875 -1.2338,-1.44375 -1.6538,-2.31 -0.42,-0.81375 -0.7087,-1.7325 -0.8925,-2.6775 -1.5225,0.86625 -3.045,1.8375 -4.5412,2.96625 -1.5225,1.155 -2.9925,2.4675 -4.4363,3.885 -1.8375,1.8375 -3.4912,4.75125 -4.6725,6.43125 l -7.875,0 -7.875,7.90125 7.875,0 5.25,-5.25 c -0.8925,2.02125 -2.6775,7.8225 -2.625,7.875 l 2.625,2.625 c 0.053,0.0525 5.8538,-1.68 7.875,-2.625 l -5.25,5.25 0,7.875 7.875,-7.875 0,-7.875 c 1.68,-1.18125 4.5938,-2.86125 6.4313,-4.6725 1.4437,-1.44375 2.7562,-2.96625 3.8587,-4.4625 1.155,-1.5225 2.1263,-3.045 2.9925,-4.515 -0.945,-0.21 -1.8375,-0.49875 -2.7037,-0.8925 -0.8138,-0.42 -1.5488,-0.945 -2.2575,-1.65375 M 1122,239 c 0,0 -0.2362,0.9975 -0.7875,2.7825 -0.525,1.8375 -1.4437,4.1475 -2.7825,6.9825 -1.8375,-0.21 -3.3337,-0.86625 -4.3575,-1.89 -1.0237,-1.02375 -1.6537,-2.4675 -1.8375,-4.305 2.835,-1.365 5.1188,-2.31 6.93,-2.835 C 1121.0025,239.21 1122,239 1122,239"
       id="path177"
       inkscape:connector-curvature="0"
       style="fill:#e5e5e5" />
    <polygon
       id="polygon179"
       points="20.232143,165.21429 18.571429,156.75 25,150.92857 16.25,149.78571 12.5,142 8.75,149.78571 0,150.92857 6.4285714,156.75 4.7678571,165.21429 12.5,161.05357 "
       style="fill:#e5e5e5" />
  </g>
  <g
     style="fill:none;stroke:none"
     id="Group-6"
     transform="translate(453,7)">
    <path
       style="stroke:#e5e5e5;stroke-width:7"
       inkscape:connector-curvature="0"
       transform="matrix(-1,0,0,-1,573.99738,446)"
       id="Path-2"
       d="M 333.99738,223 240,223" />
    <g
       transform="matrix(-1,0,0,-1,668,446)"
       id="Oval">
      <use
         height="365"
         width="1253"
         y="0"
         x="0"
         style="fill:#f5f5f5;fill-rule:evenodd"
         id="use185"
         xlink:href="#path-3" />
      <use
         height="365"
         width="1253"
         y="0"
         x="0"
         style="stroke:#e5e5e5;stroke-width:14"
         id="use187"
         xlink:href="#path-3"
         mask="url(#mask-4)" />
    </g>
    <path
       style="stroke:#e5e5e5;stroke-width:7"
       inkscape:connector-curvature="0"
       transform="matrix(-1,0,0,-1,602.2563,484)"
       id="path189"
       d="m 338.2563,284 -40.99302,0 c -1.66071,0 -3.00698,-1.3364 -3.00698,-3.00198 l 0,-77.99604 C 294.2563,201.34403 292.91718,200 291.25851,200 L 264,200" />
    <g
       transform="matrix(-1,0,0,-1,696,568)"
       id="g191">
      <use
         height="365"
         width="1253"
         y="0"
         x="0"
         style="fill:#f5f5f5;fill-rule:evenodd"
         id="use193"
         xlink:href="#path-5" />
      <use
         height="365"
         width="1253"
         y="0"
         x="0"
         style="stroke:#e5e5e5;stroke-width:14"
         id="use195"
         xlink:href="#path-5"
         mask="url(#mask-6)" />
    </g>
    <path
       style="stroke:#e5e5e5;stroke-width:7"
       inkscape:connector-curvature="0"
       transform="matrix(-1,0,0,-1,546.99302,352)"
       id="path197"
       d="m 293.99302,176 -42.99833,0" />
    <g
       transform="matrix(-1,0,0,-1,594,352)"
       id="g199">
      <use
         height="365"
         width="1253"
         y="0"
         x="0"
         style="fill:#f5f5f5;fill-rule:evenodd"
         id="use201"
         xlink:href="#path-7" />
      <use
         height="365"
         width="1253"
         y="0"
         x="0"
         style="stroke:#e5e5e5;stroke-width:14"
         id="use203"
         xlink:href="#path-7"
         mask="url(#mask-8)" />
    </g>
    <path
       style="stroke:#e5e5e5;stroke-width:7"
       inkscape:connector-curvature="0"
       transform="matrix(-1,0,0,-1,600,243.66734)"
       id="path205"
       d="m 337,90.667337 -71.00746,0 C 264.33981,90.667337 263,92.01261 263,93.673771 L 263,153" />
    <g
       transform="matrix(-1,0,0,-1,674,164)"
       id="g207">
      <use
         height="365"
         width="1253"
         y="0"
         x="0"
         style="fill:#f5f5f5;fill-rule:evenodd"
         id="use209"
         xlink:href="#path-9" />
      <use
         height="365"
         width="1253"
         y="0"
         x="0"
         style="stroke:#e5e5e5;stroke-width:14"
         id="use211"
         xlink:href="#path-9"
         mask="url(#mask-10)" />
    </g>
    <path
       style="stroke:#e5e5e5;stroke-width:7"
       inkscape:connector-curvature="0"
       transform="matrix(-1,0,0,-1,560.99319,260)"
       id="path213"
       d="M 306.99319,130 254,130" />
    <g
       transform="matrix(-1,0,0,-1,630,260)"
       id="g215">
      <use
         height="365"
         width="1253"
         y="0"
         x="0"
         style="fill:#f5f5f5;fill-rule:evenodd"
         id="use217"
         xlink:href="#path-11" />
      <use
         height="365"
         width="1253"
         y="0"
         x="0"
         style="stroke:#e5e5e5;stroke-width:14"
         id="use219"
         xlink:href="#path-11"
         mask="url(#mask-12)" />
    </g>
    <path
       style="stroke:#e5e5e5;stroke-width:7"
       inkscape:connector-curvature="0"
       transform="matrix(0,1,-1,0,288.00131,-158.99869)"
       id="path221"
       d="m 270.49869,64.501308 -93.99738,0" />
    <g
       transform="matrix(0,1,-1,0,241,-206)"
       id="g223">
      <use
         height="365"
         width="1253"
         y="0"
         x="0"
         style="fill:#f5f5f5;fill-rule:evenodd"
         id="use225"
         xlink:href="#path-13" />
      <use
         height="365"
         width="1253"
         y="0"
         x="0"
         style="stroke:#e5e5e5;stroke-width:14"
         id="use227"
         xlink:href="#path-13"
         mask="url(#mask-14)" />
    </g>
    <path
       style="stroke:#e5e5e5;stroke-width:7"
       inkscape:connector-curvature="0"
       transform="matrix(0,1,-1,0,292.87185,-192.12815)"
       id="path229"
       d="m 279.62815,92.371851 -40.99302,0 c -1.66071,0 -3.00698,-1.3364 -3.00698,-3.001976 l 0,-77.996048 c 0,-1.6579459 -1.33912,-3.0019763 -2.99779,-3.0019763 l -27.25851,0" />
    <g
       transform="matrix(0,1,-1,0,288,-281)"
       id="g231">
      <use
         height="365"
         width="1253"
         y="0"
         x="0"
         style="fill:#f5f5f5;fill-rule:evenodd"
         id="use233"
         xlink:href="#path-15" />
      <use
         height="365"
         width="1253"
         y="0"
         x="0"
         style="stroke:#e5e5e5;stroke-width:14"
         id="use235"
         xlink:href="#path-15"
         mask="url(#mask-16)" />
    </g>
    <path
       style="stroke:#e5e5e5;stroke-width:7"
       inkscape:connector-curvature="0"
       transform="matrix(0,1,-1,0,254.50349,-98.49651)"
       id="path237"
       d="m 196.99651,78.00349 -42.99833,0" />
    <g
       transform="matrix(0,1,-1,0,231,-122)"
       id="g239">
      <use
         height="365"
         width="1253"
         y="0"
         x="0"
         style="fill:#f5f5f5;fill-rule:evenodd"
         id="use241"
         xlink:href="#path-17" />
      <use
         height="365"
         width="1253"
         y="0"
         x="0"
         style="stroke:#e5e5e5;stroke-width:14"
         id="use243"
         xlink:href="#path-17"
         mask="url(#mask-18)" />
    </g>
    <path
       style="stroke:#e5e5e5;stroke-width:7"
       inkscape:connector-curvature="0"
       transform="matrix(0,1,-1,0,173.83367,-70.833669)"
       id="path245"
       d="m 159.33367,20.333669 -71.007462,0 c -1.652734,0 -2.992539,1.345272 -2.992539,3.006433 l 0,59.326229" />
    <g
       transform="matrix(0,1,-1,0,97,-68)"
       id="g247">
      <use
         height="365"
         width="1253"
         y="0"
         x="0"
         style="fill:#f5f5f5;fill-rule:evenodd"
         id="use249"
         xlink:href="#path-19" />
      <use
         height="365"
         width="1253"
         y="0"
         x="0"
         style="stroke:#e5e5e5;stroke-width:14"
         id="use251"
         xlink:href="#path-19"
         mask="url(#mask-20)" />
    </g>
    <path
       style="stroke:#e5e5e5;stroke-width:7"
       inkscape:connector-curvature="0"
       transform="matrix(0,1,-1,0,201.5034,-59.496597)"
       id="path253"
       d="m 156.9966,71.003403 -52.9932,0" />
    <g
       transform="matrix(0,1,-1,0,167,-94)"
       id="g255">
      <use
         height="365"
         width="1253"
         y="0"
         x="0"
         style="fill:#f5f5f5;fill-rule:evenodd"
         id="use257"
         xlink:href="#path-21" />
      <use
         height="365"
         width="1253"
         y="0"
         x="0"
         style="stroke:#e5e5e5;stroke-width:14"
         id="use259"
         xlink:href="#path-21"
         mask="url(#mask-22)" />
    </g>
    <path
       style="stroke:#e5e5e5;stroke-width:7"
       inkscape:connector-curvature="0"
       transform="matrix(0,-1,1,0,-157.99869,414.99869)"
       id="path261"
       d="m 175.49869,286.49869 -93.997382,0" />
    <g
       transform="matrix(0,-1,1,0,-205,462)"
       id="g263">
      <use
         height="365"
         width="1253"
         y="0"
         x="0"
         style="fill:#f5f5f5;fill-rule:evenodd"
         id="use265"
         xlink:href="#path-23" />
      <use
         height="365"
         width="1253"
         y="0"
         x="0"
         style="stroke:#e5e5e5;stroke-width:14"
         id="use267"
         xlink:href="#path-23"
         mask="url(#mask-24)" />
    </g>
    <path
       style="stroke:#e5e5e5;stroke-width:7"
       inkscape:connector-curvature="0"
       transform="matrix(0,-1,1,0,-191.12815,410.12815)"
       id="path269"
       d="m 146.62815,342.62815 -40.99302,0 c -1.66071,0 -3.00698,-1.3364 -3.00698,-3.00198 l 0,-77.99604 c 0,-1.65795 -1.33912,-3.00198 -2.997787,-3.00198 l -27.258512,0" />
    <g
       transform="matrix(0,-1,1,0,-280,415)"
       id="g271">
      <use
         height="365"
         width="1253"
         y="0"
         x="0"
         style="fill:#f5f5f5;fill-rule:evenodd"
         id="use273"
         xlink:href="#path-25" />
      <use
         height="365"
         width="1253"
         y="0"
         x="0"
         style="stroke:#e5e5e5;stroke-width:14"
         id="use275"
         xlink:href="#path-25"
         mask="url(#mask-26)" />
    </g>
    <path
       style="stroke:#e5e5e5;stroke-width:7"
       inkscape:connector-curvature="0"
       transform="matrix(0,-1,1,0,-97.49651,448.49651)"
       id="path277"
       d="m 195.99651,272.99651 -42.99833,0" />
    <g
       transform="matrix(0,-1,1,0,-121,472)"
       id="g279">
      <use
         height="365"
         width="1253"
         y="0"
         x="0"
         style="fill:#f5f5f5;fill-rule:evenodd"
         id="use281"
         xlink:href="#path-27" />
      <use
         height="365"
         width="1253"
         y="0"
         x="0"
         style="stroke:#e5e5e5;stroke-width:14"
         id="use283"
         xlink:href="#path-27"
         mask="url(#mask-28)" />
    </g>
    <path
       style="stroke:#e5e5e5;stroke-width:7"
       inkscape:connector-curvature="0"
       transform="matrix(0,-1,1,0,-69.833669,529.16633)"
       id="path285"
       d="m 266.66633,268.33367 -71.00746,0 c -1.65273,0 -2.99254,1.34527 -2.99254,3.00643 l 0,59.32623" />
    <g
       transform="matrix(0,-1,1,0,-67,606)"
       id="g287">
      <use
         height="365"
         width="1253"
         y="0"
         x="0"
         style="fill:#f5f5f5;fill-rule:evenodd"
         id="use289"
         xlink:href="#path-29" />
      <use
         height="365"
         width="1253"
         y="0"
         x="0"
         style="stroke:#e5e5e5;stroke-width:14"
         id="use291"
         xlink:href="#path-29"
         mask="url(#mask-30)" />
    </g>
    <path
       style="stroke:#e5e5e5;stroke-width:7"
       inkscape:connector-curvature="0"
       transform="matrix(0,-1,1,0,-58.496597,501.4966)"
       id="path293"
       d="m 247.9966,279.9966 -52.9932,0" />
    <g
       transform="matrix(0,-1,1,0,-93,536)"
       id="g295">
      <use
         height="365"
         width="1253"
         y="0"
         x="0"
         style="fill:#f5f5f5;fill-rule:evenodd"
         id="use297"
         xlink:href="#path-31" />
      <use
         height="365"
         width="1253"
         y="0"
         x="0"
         style="stroke:#e5e5e5;stroke-width:14"
         id="use299"
         xlink:href="#path-31"
         mask="url(#mask-32)" />
    </g>
    <path
       style="stroke:#e5e5e5;stroke-width:7"
       inkscape:connector-curvature="0"
       id="path301"
       d="m 111,129 -93.997384,0" />
    <g
       id="g303">
      <use
         height="365"
         width="1253"
         y="0"
         x="0"
         style="fill:#f5f5f5;fill-rule:evenodd"
         id="use305"
         xlink:href="#path-33" />
      <use
         height="365"
         width="1253"
         y="0"
         x="0"
         style="stroke:#e5e5e5;stroke-width:14"
         id="use307"
         xlink:href="#path-33"
         mask="url(#mask-34)" />
    </g>
    <path
       style="stroke:#e5e5e5;stroke-width:7"
       inkscape:connector-curvature="0"
       id="path309"
       d="m 87,152 -40.993019,0 C 44.346271,152 43,150.6636 43,148.99802 L 43,71.001976 C 43,69.34403 41.660885,68 40.002214,68 l -27.258513,0" />
    <g
       id="g311">
      <use
         height="365"
         width="1253"
         y="0"
         x="0"
         style="fill:#f5f5f5;fill-rule:evenodd"
         id="use313"
         xlink:href="#path-35" />
      <use
         height="365"
         width="1253"
         y="0"
         x="0"
         style="stroke:#e5e5e5;stroke-width:14"
         id="use315"
         xlink:href="#path-35"
         mask="url(#mask-36)" />
    </g>
    <path
       style="stroke:#e5e5e5;stroke-width:7"
       inkscape:connector-curvature="0"
       id="path317"
       d="m 98,176 -42.998328,0" />
    <g
       id="g319">
      <use
         height="365"
         width="1253"
         y="0"
         x="0"
         style="fill:#f5f5f5;fill-rule:evenodd"
         id="use321"
         xlink:href="#path-37" />
      <use
         height="365"
         width="1253"
         y="0"
         x="0"
         style="stroke:#e5e5e5;stroke-width:14"
         id="use323"
         xlink:href="#path-37"
         mask="url(#mask-38)" />
    </g>
    <path
       style="stroke:#e5e5e5;stroke-width:7"
       inkscape:connector-curvature="0"
       id="path325"
       d="m 88,199 -71.00746,0 C 15.339806,199 14,200.34527 14,202.00643 l 0,59.32623" />
    <g
       id="g327">
      <use
         height="365"
         width="1253"
         y="0"
         x="0"
         style="fill:#f5f5f5;fill-rule:evenodd"
         id="use329"
         xlink:href="#path-39" />
      <use
         height="365"
         width="1253"
         y="0"
         x="0"
         style="stroke:#e5e5e5;stroke-width:14"
         id="use331"
         xlink:href="#path-39"
         mask="url(#mask-40)" />
    </g>
    <path
       style="stroke:#e5e5e5;stroke-width:7"
       inkscape:connector-curvature="0"
       id="path333"
       d="m 97,222 -52.993194,0" />
    <g
       id="g335">
      <use
         height="365"
         width="1253"
         y="0"
         x="0"
         style="fill:#f5f5f5;fill-rule:evenodd"
         id="use337"
         xlink:href="#path-41" />
      <use
         height="365"
         width="1253"
         y="0"
         x="0"
         style="stroke:#e5e5e5;stroke-width:14"
         id="use339"
         xlink:href="#path-41"
         mask="url(#mask-42)" />
    </g>
  </g>
  <path
     style="fill:none;stroke:#3c4146;stroke-width:7;stroke-linecap:round"
     inkscape:connector-curvature="0"
     id="path341"
     d="m 697,230 20.00125,0" />
  <path
     style="fill:none;stroke:#3c4146;stroke-width:7;stroke-linecap:round"
     inkscape:connector-curvature="0"
     id="path343"
     d="m 697,207 20.00125,0" />
  <path
     style="fill:none;stroke:#3c4146;stroke-width:7;stroke-linecap:round"
     inkscape:connector-curvature="0"
     id="path345"
     d="m 697,183 20.00125,0" />
  <path
     style="fill:none;stroke:#3c4146;stroke-width:7;stroke-linecap:round"
     inkscape:connector-curvature="0"
     id="path347"
     d="m 697,160 20.00125,0" />
  <path
     style="fill:none;stroke:#3c4146;stroke-width:7;stroke-linecap:round"
     inkscape:connector-curvature="0"
     id="path349"
     d="m 697,137 20.00125,0" />
  <path
     style="fill:none;stroke:#586169;stroke-width:7;stroke-linecap:round"
     inkscape:connector-curvature="0"
     id="path351"
     d="m 676.5,114.5 0,-20.00126" />
  <path
     style="fill:none;stroke:#586169;stroke-width:7;stroke-linecap:round"
     inkscape:connector-curvature="0"
     id="path353"
     d="m 653.5,114.5 0,-20.00126" />
  <path
     style="fill:none;stroke:#586169;stroke-width:7;stroke-linecap:round"
     inkscape:connector-curvature="0"
     id="path355"
     d="m 629.5,114.5 0,-20.001257" />
  <path
     style="fill:none;stroke:#586169;stroke-width:7;stroke-linecap:round"
     inkscape:connector-curvature="0"
     id="path357"
     d="m 606.5,114.5 0,-20.001257" />
  <path
     style="fill:none;stroke:#586169;stroke-width:7;stroke-linecap:round"
     inkscape:connector-curvature="0"
     id="path359"
     d="m 583.5,114.5 0,-20.001257" />
  <path
     style="fill:none;stroke:#3c4146;stroke-width:7;stroke-linecap:round"
     inkscape:connector-curvature="0"
     id="path361"
     d="m 581.5,250.5 0,20.00126" />
  <path
     style="fill:none;stroke:#3c4146;stroke-width:7;stroke-linecap:round"
     inkscape:connector-curvature="0"
     id="path363"
     d="m 604.5,250.5 0,20.00126" />
  <path
     style="fill:none;stroke:#3c4146;stroke-width:7;stroke-linecap:round"
     inkscape:connector-curvature="0"
     id="path365"
     d="m 628.5,250.5 0,20.00126" />
  <path
     style="fill:none;stroke:#3c4146;stroke-width:7;stroke-linecap:round"
     inkscape:connector-curvature="0"
     id="path367"
     d="m 651.5,250.5 0,20.00126" />
  <path
     style="fill:none;stroke:#3c4146;stroke-width:7;stroke-linecap:round"
     inkscape:connector-curvature="0"
     id="path369"
     d="m 674.5,250.5 0,20.00126" />
  <path
     style="fill:none;stroke:#586169;stroke-width:7;stroke-linecap:round"
     inkscape:connector-curvature="0"
     id="path371"
     d="m 560,136 -20.00125,0" />
  <path
     style="fill:none;stroke:#586169;stroke-width:7;stroke-linecap:round"
     inkscape:connector-curvature="0"
     id="path373"
     d="m 560,159 -20.00125,0" />
  <path
     style="fill:none;stroke:#586169;stroke-width:7;stroke-linecap:round"
     inkscape:connector-curvature="0"
     id="path375"
     d="m 560,183 -20.00125,0" />
  <path
     style="fill:none;stroke:#586169;stroke-width:7;stroke-linecap:round"
     inkscape:connector-curvature="0"
     id="path377"
     d="m 560,206 -20.00125,0" />
  <path
     style="fill:none;stroke:#586169;stroke-width:7;stroke-linecap:round"
     inkscape:connector-curvature="0"
     id="path379"
     d="m 560,229 -20.00125,0" />
  <g
     style="fill:none;stroke:none"
     transform="translate(560,114)"
     id="Group-9">
    <mask
       fill="white"
       id="mask-44">
      <use
         height="365"
         width="1253"
         y="0"
         x="0"
         id="use383"
         xlink:href="#path-43" />
    </mask>
    <use
       height="365"
       width="1253"
       y="0"
       x="0"
       style="fill:#586069"
       xlink:href="#path-43"
       id="Rectangle-5" />
    <polygon
       style="fill:#3c4146"
       points="138,138 0,138 138,0 "
       mask="url(#mask-44)"
       id="polygon386" />
  </g>
  <rect
     style="fill:#2f3338;stroke:none"
     height="26"
     width="15"
     y="169"
     x="560"
     id="Rectangle-7" />
  <rect
     style="fill:#2f3338;stroke:none"
     height="26"
     width="15"
     y="-642.5"
     x="114.5"
     transform="matrix(0,1,-1,0,0,0)"
     id="rect389" />
  <g
     style="fill:none;stroke:none"
     id="Rectangle"
     transform="translate(453,7)">
    <use
       height="365"
       width="1253"
       y="0"
       x="0"
       style="fill:#000000;fill-opacity:1;filter:url(#filter-46)"
       id="use392"
       xlink:href="#path-45" />
    <use
       height="365"
       width="1253"
       y="0"
       x="0"
       style="fill:#ffffff;fill-rule:evenodd"
       id="use394"
       xlink:href="#path-45" />
  </g>
</svg>
