<?xml version="1.0" encoding="UTF-8" standalone="no"?>
<svg width="32px" height="32px" viewBox="0 0 32 32" version="1.1" xmlns="http://www.w3.org/2000/svg" xmlns:xlink="http://www.w3.org/1999/xlink">
    <!-- Generator: Sketch 39.1 (31720) - http://www.bohemiancoding.com/sketch -->
    <title>library-c</title>
    <desc>Created with Sketch.</desc>
    <defs></defs>
    <g id="New" stroke="none" stroke-width="1" fill="none" fill-rule="evenodd">
        <g id="Page-Template-Copy-8" transform="translate(-844.000000, -1142.000000)">
            <g id="library-c" transform="translate(844.000000, 1142.000000)">
                <rect id="Rectangle-11" fill="#0058A2" x="0" y="0" width="32" height="32" rx="3"></rect>
                <path d="M21.2675781,18.5488281 L21.2890625,18.6132812 C21.3177085,20.2962324 20.803879,21.6300406 19.7475586,22.6147461 C18.6912382,23.5994515 17.2249443,24.0917969 15.3486328,24.0917969 C13.4651599,24.0917969 11.9362038,23.4866597 10.7617188,22.2763672 C9.58723371,21.0660747 9,19.5084731 9,17.6035156 L9,14.4990234 C9,12.6012275 9.57291094,11.0436259 10.71875,9.82617188 C11.8645891,8.60871787 13.3541575,8 15.1875,8 C17.1211034,8 18.632156,8.49592603 19.7207031,9.48779297 C20.8092502,10.4796599 21.3391929,11.8313717 21.3105469,13.5429688 L21.2890625,13.6074219 L18.2382812,13.6074219 C18.2382812,12.5761667 17.9912134,11.7866238 17.4970703,11.2387695 C17.0029272,10.6909152 16.2330781,10.4169922 15.1875,10.4169922 C14.2493443,10.4169922 13.50456,10.798336 12.953125,11.5610352 C12.40169,12.3237343 12.1259766,13.2958925 12.1259766,14.4775391 L12.1259766,17.6035156 C12.1259766,18.7994851 12.4160127,19.7788048 12.9960938,20.5415039 C13.5761748,21.304203 14.3603466,21.6855469 15.3486328,21.6855469 C16.3297575,21.6855469 17.0548479,21.4223659 17.5239258,20.8959961 C17.9930036,20.3696263 18.2275391,19.5872448 18.2275391,18.5488281 L21.2675781,18.5488281 Z" id="C" fill="#FFFFFF"></path>
            </g>
        </g>
    </g>
</svg>